<?xml version="1.0" encoding="UTF-8" standalone="no"?>
<svg
   width="16"
   height="16"
   version="1.1"
   id="svg1"
   sodipodi:docname="audio-input-microphone-symbolic.svg"
   inkscape:version="1.4 (e7c3feb100, 2024-10-09)"
   xmlns:inkscape="http://www.inkscape.org/namespaces/inkscape"
   xmlns:sodipodi="http://sodipodi.sourceforge.net/DTD/sodipodi-0.dtd"
   xmlns="http://www.w3.org/2000/svg"
   xmlns:svg="http://www.w3.org/2000/svg">
  <defs
     id="defs1" />
  <sodipodi:namedview
     id="namedview1"
     pagecolor="#505050"
     bordercolor="#eeeeee"
     borderopacity="1"
     inkscape:showpageshadow="0"
     inkscape:pageopacity="0"
     inkscape:pagecheckerboard="0"
     inkscape:deskcolor="#505050"
     inkscape:zoom="23.875"
     inkscape:cx="8"
     inkscape:cy="8"
     inkscape:window-width="958"
     inkscape:window-height="1041"
     inkscape:window-x="3520"
     inkscape:window-y="37"
     inkscape:window-maximized="1"
     inkscape:current-layer="svg1" />
  <path
     style="fill:#bec983;fill-opacity:1"
     d="M 8,0 C 6.34,0 5,1.34 5,3 V 8 C 5,9.66 6.34,11 8,11 9.66,11 11,9.66 11,8 V 3 C 11,1.34 9.66,0 8,0 Z M 2,7 V 8 C 2,10.97 4.16,13.43 7,13.91 V 16 H 9 V 13.91 C 11.84,13.43 14,10.97 14,8 V 7 H 12 V 8 C 12,10.23 10.23,12 8,12 5.77,12 4,10.23 4,8 V 7 Z"
     id="path1" />
</svg>
