<?xml version="1.0" encoding="UTF-8" standalone="no"?>
<svg
   height="16px"
   viewBox="0 0 16 16"
   width="16px"
   version="1.1"
   id="svg2"
   sodipodi:docname="dialog-information-symbolic.svg"
   inkscape:version="1.3.2 (091e20ef0f, 2023-11-25)"
   xmlns:inkscape="http://www.inkscape.org/namespaces/inkscape"
   xmlns:sodipodi="http://sodipodi.sourceforge.net/DTD/sodipodi-0.dtd"
   xmlns="http://www.w3.org/2000/svg"
   xmlns:svg="http://www.w3.org/2000/svg">
  <defs
     id="defs2" />
  <sodipodi:namedview
     id="namedview2"
     pagecolor="#505050"
     bordercolor="#eeeeee"
     borderopacity="1"
     inkscape:showpageshadow="0"
     inkscape:pageopacity="0"
     inkscape:pagecheckerboard="0"
     inkscape:deskcolor="#505050"
     inkscape:zoom="52.3125"
     inkscape:cx="8"
     inkscape:cy="7.9808841"
     inkscape:window-width="1278"
     inkscape:window-height="1041"
     inkscape:window-x="1280"
     inkscape:window-y="37"
     inkscape:window-maximized="1"
     inkscape:current-layer="g2" />
  <g
     fill="#2e3436"
     id="g2">
    <path
       d="M 7.996094,0 C 5.160156,0 2.703125,2 2.125,4.777344 1.597656,7.3125 2.8125,9.8125 5,11.105469 V 12 c 0,0.554688 0.449219,1 1,1 h 4 c 0.550781,0 1,-0.445312 1,-1 l 0.0039,-0.898438 C 13.183594,9.808594 14.402344,7.304688 13.871094,4.769531 13.289062,1.996094 10.832031,0 7.996094,0 Z m 0,2 C 9.894531,2 11.523438,3.320312 11.914062,5.179688 12.304688,7.042969 11.34375,8.90625 9.601562,9.667969 9.238281,9.824219 9.003906,10.183594 9,10.582031 V 11 H 7 V 10.582031 C 6.996094,10.183594 6.761719,9.828125 6.398438,9.667969 4.65625,8.90625 3.695312,7.042969 4.082031,5.183594 4.46875,3.324219 6.097656,2 7.996094,2 Z M 6,14 v 1 c 0,0.554688 0.445312,1 1,1 h 2 c 0.554688,0 1,-0.445312 1,-1 v -1 z m 0,0"
       id="path1" />
    <path
       d="m 6.644531 6.144531 c -0.195312 0.195313 -0.195312 0.515625 0 0.707031 l 1 1 c 0.195313 0.195313 0.511719 0.195313 0.707031 0 l 1 -1 c 0.195313 -0.191406 0.195313 -0.511718 0 -0.707031 c -0.195312 -0.191406 -0.511718 -0.191406 -0.707031 0 l -0.648437 0.648438 l -0.644532 -0.648438 c -0.195312 -0.191406 -0.511718 -0.191406 -0.707031 0 z m 0 0"
       fill-opacity="0.34902"
       id="path2" />
    <path
       style="fill:#f7b1c3;stroke-width:0.0191159;fill-opacity:1"
       d="M 5.7590951,12.959522 C 5.4510203,12.884842 5.1982188,12.658286 5.0720545,12.34381 5.0305959,12.24047 5.0275018,12.201784 5.0182157,11.670614 L 5.0083632,11.107058 4.7496898,10.934652 C 4.4304811,10.721899 4.3057411,10.626131 4.0180764,10.372959 3.4620892,9.8836397 2.9661782,9.231321 2.6282603,8.5448029 2.3257359,7.9301907 2.1628659,7.4086322 2.0611647,6.7287933 2.008856,6.3791268 2.0129757,5.5058269 2.0686054,5.1514925 2.242976,4.0408356 2.6512487,3.1027204 3.3330403,2.2461171 3.5302058,1.9983981 4.0074514,1.5235249 4.2628435,1.3209356 5.3837603,0.4317707 6.7551285,-0.02735848 8.1624851,0.01534961 c 0.199761,0.006062 0.4655254,0.02472916 0.5905873,0.04148254 2.1717386,0.29092745 3.9890886,1.69716175 4.8056826,3.71855615 0.175308,0.4339563 0.290289,0.861855 0.369839,1.3763441 0.05711,0.3693773 0.06258,1.1772693 0.01047,1.5467318 -0.18698,1.3257054 -0.773054,2.4991998 -1.720702,3.4453588 -0.330418,0.329898 -0.770394,0.680683 -1.095312,0.873273 l -0.117089,0.0694 -0.0098,0.535604 c -0.0079,0.430412 -0.01623,0.556252 -0.04244,0.64074 -0.109909,0.354306 -0.381268,0.61738 -0.718919,0.69697 -0.175385,0.04134 -4.3050487,0.04107 -4.4756849,-2.91e-4 z m 3.2540471,-2.231491 c 0,-0.306341 0.022422,-0.423324 0.1171282,-0.611078 C 9.228061,9.9230821 9.3890506,9.7813737 9.6572691,9.6530718 10.445802,9.275878 11.011352,8.7700616 11.441437,8.0573477 11.983505,7.1590616 12.145084,6.0344229 11.879862,5.0057873 11.512685,3.581735 10.403155,2.4743977 8.9830375,2.1146879 8.6222345,2.0232981 8.487823,2.008762 8,2.008376 7.489907,2.0079725 7.3716263,2.0220754 6.948925,2.1337 5.7415792,2.4525287 4.7267366,3.3574354 4.27418,4.5186948 c -0.6652771,1.7071 -0.131218,3.5972259 1.3263665,4.6942358 0.1960704,0.1475668 0.4435315,0.2948027 0.7276177,0.4329225 0.2001334,0.097303 0.2666533,0.1406757 0.3612016,0.2355152 0.2257046,0.2263997 0.297492,0.4307067 0.297492,0.8466627 v 0.273164 H 8 9.0131422 Z"
       id="path3" />
    <path
       style="fill:#f7b1c3;fill-opacity:1;stroke-width:0.0191159"
       d="M 7.7897252,7.9411951 C 7.6669753,7.8857582 6.6228111,6.8441893 6.5561672,6.7107031 6.3967915,6.3914771 6.636055,6.0110636 6.9953901,6.0123673 c 0.1924174,6.98e-4 0.2482359,0.03827 0.6457582,0.4346713 L 7.9991425,6.8040229 8.3771101,6.4302664 C 8.7118207,6.0992849 8.7655222,6.0536607 8.8463386,6.0316154 8.9750442,5.9965067 9.1458804,6.015599 9.2502335,6.076754 9.4847518,6.2141909 9.5601942,6.5526636 9.4059265,6.7752719 9.3797913,6.8129853 9.1192516,7.0820107 8.82695,7.3731061 8.4436486,7.7548254 8.2716237,7.9131972 8.2098727,7.9412076 8.0940671,7.9937369 7.9060526,7.9937313 7.7897252,7.9411951 Z"
       id="path4" />
    <path
       style="fill:#f0c674;fill-opacity:1;stroke-width:0.0191159"
       d="m 6.7614714,15.960704 c -0.3638972,-0.09795 -0.6548816,-0.397635 -0.7283993,-0.750175 -0.012603,-0.06044 -0.021125,-0.324544 -0.021125,-0.65472 v -0.55342 H 8 9.9880526 v 0.55342 c 0,0.330176 -0.00852,0.594284 -0.021125,0.65472 -0.075359,0.361369 -0.3974194,0.683429 -0.7587888,0.758788 -0.163308,0.03406 -2.3163067,0.02648 -2.4466678,-0.0086 z"
       id="path5" />
    <path
       style="fill:#f0c674;fill-opacity:1;stroke-width:0.0191159"
       d="M 6.4898447,12.97119 C 5.7884527,12.95829 5.7488812,12.95563 5.6474021,12.91476 5.4235561,12.8246 5.2055363,12.611453 5.0979062,12.377537 5.0512952,12.276234 5.0487792,12.251 5.0289462,11.685741 L 5.0083632,11.099084 4.7072254,10.890907 C 3.9767646,10.385939 3.4794573,9.88509 3.0135644,9.1851852 2.5483308,8.486271 2.2403818,7.7100924 2.0920798,6.8626045 2.0407233,6.5691227 2.0203521,5.8051798 2.0533681,5.410875 2.1001255,4.8524601 2.2752937,4.1774553 2.5224341,3.6033453 2.9582419,2.5909588 3.7607219,1.6414639 4.7123542,1.0122304 5.5279646,0.47293668 6.4559849,0.1460069 7.4540961,0.04634934 7.7545967,0.01634553 8.5493425,0.03374933 8.8219833,0.07630411 9.8026302,0.22936709 10.681968,0.57994982 11.447855,1.1232113 c 1.286119,0.9122747 2.155102,2.2797492 2.438275,3.8369894 0.09762,0.5368512 0.103355,1.3965689 0.01281,1.9215197 -0.171164,0.9923787 -0.600569,1.9515403 -1.226283,2.739149 -0.210438,0.2648854 -0.779757,0.8237836 -1.055958,1.0366286 -0.129333,0.09967 -0.318581,0.233938 -0.42055,0.298381 l -0.185398,0.117169 -0.01231,0.169569 c -0.0068,0.09326 -0.0134,0.307204 -0.01472,0.475424 -0.0031,0.39243 -0.02189,0.51587 -0.1053,0.691514 -0.137658,0.289868 -0.417165,0.504839 -0.702549,0.540335 -0.1878197,0.02336 -2.7647061,0.03825 -3.6860253,0.0213 z m 2.5362925,-2.299744 c 0.017509,-0.28482 0.027201,-0.346679 0.071129,-0.454003 C 9.2057957,9.9522867 9.3311922,9.8381578 9.7625764,9.6119151 10.256827,9.3527016 10.548673,9.1395454 10.887087,8.7906022 11.471841,8.1876567 11.839989,7.4447801 11.966812,6.6118522 12.227849,4.8974564 11.358311,3.2024432 9.8161285,2.419468 9.408455,2.2124897 8.9081841,2.0578753 8.5159086,2.0176203 8.2649344,1.9918654 7.7343293,1.9919409 7.4826571,2.0177675 6.958029,2.0716045 6.274422,2.3241464 5.7921147,2.6422975 4.8493106,3.2642124 4.2476875,4.1873917 4.0384038,5.3333333 c -0.055822,0.3056572 -0.060521,1.0026575 -0.00876,1.2998806 0.1577445,0.9058565 0.5567698,1.6616472 1.2009927,2.2747909 0.3176862,0.30236 0.592652,0.4916381 1.0723361,0.7381631 0.2241479,0.115197 0.2930697,0.1611365 0.3885232,0.258968 0.2113439,0.2166091 0.2645643,0.3694081 0.2868823,0.8236571 l 0.013384,0.272402 h 1.0070535 1.0070536 z"
       id="path6" />
    <path
       style="fill:#ccb387;fill-opacity:1;stroke-width:0.0191159"
       d="M 7.817918,7.9436465 C 7.7019907,7.8966373 6.6695385,6.8712416 6.5740182,6.7082485 6.4983444,6.579121 6.4992746,6.4236837 6.5765711,6.2816646 6.6690491,6.1117521 6.8089833,6.0310633 7.0111752,6.0310633 c 0.1688668,0 0.2392495,0.049324 0.64919,0.4549534 L 7.9993444,6.8214309 8.3723199,6.4539924 C 8.5873048,6.242199 8.7734236,6.0748011 8.8116991,6.0588086 c 0.036522,-0.01526 0.1209052,-0.027745 0.1875179,-0.027745 0.2775564,0 0.4735031,0.2012544 0.4722868,0.4850796 C 9.4707156,6.7000248 9.4377296,6.7428387 8.8356779,7.3414083 8.5116448,7.6635674 8.2478797,7.910339 8.2073858,7.9292219 8.1329754,7.9639207 7.8900981,7.972916 7.817918,7.9436465 Z"
       id="path7" />
  </g>
</svg>
