<?xml version="1.0" encoding="UTF-8" standalone="no"?>
<svg
   height="16px"
   viewBox="0 0 16 16"
   width="16px"
   version="1.1"
   id="svg1"
   sodipodi:docname="notification-icon.svg"
   inkscape:version="1.3.2 (091e20ef0f, 2023-11-25)"
   xmlns:inkscape="http://www.inkscape.org/namespaces/inkscape"
   xmlns:sodipodi="http://sodipodi.sourceforge.net/DTD/sodipodi-0.dtd"
   xmlns="http://www.w3.org/2000/svg"
   xmlns:svg="http://www.w3.org/2000/svg">
  <defs
     id="defs1" />
  <sodipodi:namedview
     id="namedview1"
     pagecolor="#505050"
     bordercolor="#eeeeee"
     borderopacity="1"
     inkscape:showpageshadow="0"
     inkscape:pageopacity="0"
     inkscape:pagecheckerboard="0"
     inkscape:deskcolor="#505050"
     inkscape:zoom="50.0625"
     inkscape:cx="8"
     inkscape:cy="8"
     inkscape:window-width="1278"
     inkscape:window-height="1041"
     inkscape:window-x="1280"
     inkscape:window-y="37"
     inkscape:window-maximized="1"
     inkscape:current-layer="svg1" />
  <path
     d="m 8 0 c -0.828125 0 -1.5 0.671875 -1.5 1.5 c 0 0.074219 0.007812 0.148438 0.015625 0.222656 c -2.089844 0.652344 -3.515625 2.585938 -3.515625 4.777344 v 4.5 h -0.5 c -0.554688 0 -1 0.445312 -1 1 s 0.445312 1 1 1 h 11 c 0.554688 0 1 -0.445312 1 -1 s -0.445312 -1 -1 -1 h -0.503906 v -4.40625 c 0.003906 -0.03125 0.003906 -0.0625 0.003906 -0.09375 c 0 -2.191406 -1.425781 -4.125 -3.519531 -4.773438 c 0.015625 -0.078124 0.019531 -0.152343 0.019531 -0.226562 c 0 -0.828125 -0.667969 -1.5 -1.5 -1.5 z m 0 3.5 c 1.65625 0 3 1.34375 3 3 v 4.5 h -6 v -4.5 c 0 -1.65625 1.34375 -3 3 -3 z m -2 10.5 c 0 0.714844 0.382812 1.375 1 1.730469 c 0.617188 0.359375 1.382812 0.359375 2 0 c 0.617188 -0.355469 1 -1.015625 1 -1.730469 z m 0 0"
     fill="#222222"
     id="path1" />
  <path
     style="fill:#f0c674;stroke-width:0.019975"
     d="M 2.3171036,12.97349 C 1.9000668,12.88946 1.5849015,12.557673 1.5237801,12.138319 c -0.070809,-0.485821 0.2454355,-0.969392 0.713731,-1.091368 0.082717,-0.02154 0.2148854,-0.03072 0.4424703,-0.03072 h 0.3245217 l 0.00709,-2.4918854 C 3.0193281,5.8073726 3.0140546,5.9392098 3.1369119,5.3914287 3.5077501,3.7379809 4.7165525,2.378042 6.3320849,1.7967642 L 6.5118602,1.73208 6.5140365,1.5152285 C 6.5167439,1.2454467 6.5566518,1.0732871 6.6712116,0.83718592 6.8654224,0.43692858 7.2592921,0.13375536 7.7045675,0.04178121 8.2138737,-0.06341888 8.7186205,0.09991937 9.0837991,0.48810651 9.3582644,0.77986489 9.4825608,1.0985053 9.4830436,1.5115912 l 2.727e-4,0.2331892 0.052349,0.013095 c 0.2344757,0.058655 0.7947317,0.317565 1.1010387,0.5088221 1.125692,0.7028772 1.93932,1.8448046 2.226384,3.1247309 0.122857,0.5477811 0.117584,0.4159439 0.125317,3.1329159 l 0.0071,2.4918857 0.323725,4.88e-4 c 0.178048,2.69e-4 0.364174,0.0098 0.413612,0.02119 0.262367,0.06043 0.520671,0.266201 0.644261,0.513244 0.271233,0.542162 0.02045,1.16805 -0.555986,1.387587 l -0.118238,0.04503 -5.6529337,0.0029 c -3.1091136,0.0016 -5.6888889,-0.0043 -5.732834,-0.01319 z M 11.016213,8.7440699 c -2e-5,-2.6623906 -0.0026,-2.7101094 -0.171286,-3.2181024 -0.33972,-1.0228116 -1.2532067,-1.8021073 -2.3355637,-1.9924696 -0.2695876,-0.047414 -0.749139,-0.047414 -1.0187266,0 C 6.1406118,3.7709369 5.1375373,4.862562 5.0034595,6.2402405 4.9931572,6.3460992 4.9845703,7.4584837 4.9842856,8.7240949 L 4.9837703,11.01623 H 8 11.01623 Z"
     id="path2" />
  <path
     style="fill:#f0c674;stroke-width:0.019975"
     d="M 7.6670989,15.961785 C 6.9558954,15.826032 6.3831514,15.35047 6.1344019,14.689153 6.0822055,14.550385 6.0329662,14.321375 6.0136072,14.127341 L 6.0021479,14.012484 H 8 9.9978521 l -0.011459,0.114857 c -0.053427,0.535499 -0.2452488,0.946889 -0.6053271,1.298215 -0.2378785,0.232096 -0.5742079,0.420057 -0.901665,0.503903 -0.2172792,0.05564 -0.6085998,0.07121 -0.8123018,0.03233 z"
     id="path3" />
</svg>
