<?xml version="1.0" encoding="UTF-8" standalone="no"?>
<svg
   width="64"
   height="64"
   version="1"
   id="svg19"
   sodipodi:docname="preferences-desktop-keyboard.svg"
   inkscape:version="1.4 (e7c3feb100, 2024-10-09)"
   xmlns:inkscape="http://www.inkscape.org/namespaces/inkscape"
   xmlns:sodipodi="http://sodipodi.sourceforge.net/DTD/sodipodi-0.dtd"
   xmlns="http://www.w3.org/2000/svg"
   xmlns:svg="http://www.w3.org/2000/svg">
  <defs
     id="defs19" />
  <sodipodi:namedview
     id="namedview19"
     pagecolor="#505050"
     bordercolor="#eeeeee"
     borderopacity="1"
     inkscape:showpageshadow="0"
     inkscape:pageopacity="0"
     inkscape:pagecheckerboard="0"
     inkscape:deskcolor="#505050"
     inkscape:zoom="9.148194"
     inkscape:cx="20.331882"
     inkscape:cy="34.542337"
     inkscape:window-width="2558"
     inkscape:window-height="1041"
     inkscape:window-x="0"
     inkscape:window-y="37"
     inkscape:window-maximized="1"
     inkscape:current-layer="svg19" />
  <rect
     style="fill:#889b8e;fill-opacity:1"
     width="56"
     height="40"
     x="4"
     y="12"
     rx="2.8"
     ry="2.8"
     id="rect1" />
  <circle
     style="opacity:.2"
     cx="11"
     cy="22"
     r="3"
     id="circle1" />
  <circle
     style="opacity:.2"
     cx="21"
     cy="22"
     r="3"
     id="circle2" />
  <circle
     style="opacity:.2"
     cx="31"
     cy="22"
     r="3"
     id="circle3" />
  <circle
     style="opacity:.2"
     cx="41"
     cy="22"
     r="3"
     id="circle4" />
  <circle
     style="opacity:.2"
     cx="51"
     cy="22"
     r="3"
     id="circle5" />
  <circle
     style="opacity:.2"
     cx="17"
     cy="34"
     r="3"
     id="circle6" />
  <circle
     style="opacity:.2"
     cx="27"
     cy="34"
     r="3"
     id="circle7" />
  <circle
     style="opacity:.2"
     cx="37"
     cy="34"
     r="3"
     id="circle8" />
  <circle
     style="opacity:.2"
     cx="47"
     cy="34"
     r="3"
     id="circle9" />
  <rect
     style="opacity:.2"
     width="40"
     height="6"
     x="12"
     y="43"
     rx="1.5"
     ry="1.5"
     id="rect9" />
  <circle
     style="fill:#e4e4e4"
     cx="11"
     cy="21"
     r="3"
     id="circle10" />
  <circle
     style="fill:#e4e4e4"
     cx="21"
     cy="21"
     r="3"
     id="circle11" />
  <circle
     style="fill:#e4e4e4"
     cx="31"
     cy="21"
     r="3"
     id="circle12" />
  <circle
     style="fill:#e4e4e4"
     cx="41"
     cy="21"
     r="3"
     id="circle13" />
  <circle
     style="fill:#e4e4e4"
     cx="51"
     cy="21"
     r="3"
     id="circle14" />
  <circle
     style="fill:#e4e4e4"
     cx="17"
     cy="33"
     r="3"
     id="circle15" />
  <circle
     style="fill:#e4e4e4"
     cx="27"
     cy="33"
     r="3"
     id="circle16" />
  <circle
     style="fill:#e4e4e4"
     cx="37"
     cy="33"
     r="3"
     id="circle17" />
  <circle
     style="fill:#e4e4e4"
     cx="47"
     cy="33"
     r="3"
     id="circle18" />
  <rect
     style="fill:#e4e4e4"
     width="40"
     height="6"
     x="12"
     y="42"
     rx="1.5"
     ry="1.5"
     id="rect18" />
  <path
     style="opacity:.1;fill:#ffffff"
     d="m6.8008 12c-1.5512 0-2.8008 1.25-2.8008 2.801v1c0-1.551 1.2496-2.801 2.8008-2.801h50.398c1.551 0 2.801 1.25 2.801 2.801v-1c0-1.551-1.25-2.801-2.801-2.801h-50.398z"
     id="path18" />
  <path
     style="opacity:.2"
     d="m4 49.199v1c0 1.551 1.2496 2.801 2.8008 2.801h50.398c1.551 0 2.801-1.25 2.801-2.801v-1c0 1.551-1.25 2.801-2.801 2.801h-50.398c-1.5514 0-2.801-1.25-2.801-2.801z"
     id="path19" />
</svg>
